<?xml version="1.0" encoding="UTF-8"?>
<svg version="1.1" xmlns="http://www.w3.org/2000/svg" width="512" height="512">
<path d="M0 0 C3.22736331 1.12559436 6.40528535 2.34201152 9.58544922 3.59472656 C12.06991596 4.52442378 14.55556608 5.4480868 17.04638672 6.36035156 C17.69208115 6.59750885 18.33777557 6.83466614 19.0030365 7.07901001 C74.90061717 27.38906482 135.81618779 37.89395153 195.02294922 41.21972656 C195.9784668 41.27612305 196.93398437 41.33251953 197.91845703 41.390625 C277.64569271 45.93801036 358.82578902 36.17034092 464.18310547 2.59082031 C464.8490271 2.36524948 465.51494873 2.13967865 466.2010498 1.90727234 C468.53971136 1.10750005 470.8094188 0.32649177 473.02294922 -0.78027344 C482.03139756 -1.81065152 482.03139756 -1.81065152 486.04638672 0.26660156 C488.16898686 2.02680656 489.78539263 3.74461339 491.02294922 6.21972656 C491.66083044 15.75772952 490.56235742 24.67344563 488.52294922 33.96972656 C488.12027832 35.84374146 488.12027832 35.84374146 487.70947266 37.75561523 C477.35448159 84.3972516 456.80748037 126.37282794 424.02294922 161.21972656 C424.55662109 162.31285156 425.09029297 163.40597656 425.64013672 164.53222656 C459.63666429 234.8051125 481.0627545 323.08702296 454.5949707 399.6105957 C446.77823295 420.84538283 435.81649795 439.06227118 420.02294922 455.21972656 C419.35908203 455.93386719 418.69521484 456.64800781 418.01123047 457.38378906 C388.86538335 488.0571963 343.93556294 501.34603416 303.39794922 507.46972656 C302.40005371 507.62078857 301.4021582 507.77185059 300.37402344 507.92749023 C296.92811891 508.41214744 293.48074298 508.82805378 290.02294922 509.21972656 C289.25623901 509.30692963 288.48952881 509.39413269 287.69958496 509.48397827 C271.69475807 511.24271432 255.73298994 511.5647284 239.64697266 511.53540039 C236.91177832 511.53079079 234.17703111 511.53763244 231.44189453 511.5559082 C189.2818032 511.83458231 147.68490441 507.13510002 108.02294922 492.21972656 C106.41226563 491.62224609 106.41226563 491.62224609 104.76904297 491.01269531 C84.50663749 483.03736743 66.97474932 471.64250938 51.39941406 456.54052734 C50.24081409 455.42878101 49.05117761 454.34950946 47.85498047 453.27832031 C21.82742288 429.29003527 9.04770692 389.47601856 6.02294922 355.21972656 C5.93899902 354.3114209 5.85504883 353.40311523 5.76855469 352.46728516 C0.50435799 291.18977546 13.42315059 230.28695575 39.72412109 174.97460938 C41.87478437 170.41293938 43.94893492 165.81664224 46.02294922 161.21972656 C45.29591797 160.46691406 44.56888672 159.71410156 43.81982422 158.93847656 C7.88778258 121.21315373 -19.49326276 64.98796931 -21.53955078 12.28222656 C-21.41980028 8.24902977 -21.13173769 5.60499102 -18.60205078 2.40722656 C-13.12275178 -2.15885594 -6.74466917 -1.76775157 0 0 Z " fill="#FE5263" transform="translate(20.97705078125,0.7802734375)"/>
<path d="M0 0 C3.22736331 1.12559436 6.40528535 2.34201152 9.58544922 3.59472656 C12.06991596 4.52442378 14.55556608 5.4480868 17.04638672 6.36035156 C17.69208115 6.59750885 18.33777557 6.83466614 19.0030365 7.07901001 C74.90061717 27.38906482 135.81618779 37.89395153 195.02294922 41.21972656 C195.9784668 41.27612305 196.93398437 41.33251953 197.91845703 41.390625 C277.64569271 45.93801036 358.82578902 36.17034092 464.18310547 2.59082031 C464.8490271 2.36524948 465.51494873 2.13967865 466.2010498 1.90727234 C468.53971136 1.10750005 470.8094188 0.32649177 473.02294922 -0.78027344 C482.03139756 -1.81065152 482.03139756 -1.81065152 486.04638672 0.26660156 C488.16898686 2.02680656 489.78539263 3.74461339 491.02294922 6.21972656 C491.66083044 15.75772952 490.56235742 24.67344563 488.52294922 33.96972656 C488.12027832 35.84374146 488.12027832 35.84374146 487.70947266 37.75561523 C477.35448159 84.3972516 456.80748037 126.37282794 424.02294922 161.21972656 C419.84774637 159.82799228 419.01617758 156.97728612 417.08544922 153.28222656 C408.55524386 137.59565399 398.19418404 123.12639628 387.02294922 109.21972656 C386.58821289 108.67751465 386.15347656 108.13530273 385.70556641 107.57666016 C378.52833206 98.75571866 371.81216841 95.12980366 360.71044922 93.09472656 C359.83654541 92.93004883 358.9626416 92.76537109 358.06225586 92.59570312 C320.09503046 85.68946311 275.89581398 85.90905437 242.77685547 108.42675781 C241.16255587 109.6428795 239.57311512 110.89403256 238.03076172 112.20019531 C236.02294922 113.21972656 236.02294922 113.21972656 233.56982422 112.59472656 C230.9830536 111.19818783 228.57798932 109.68631928 226.14794922 108.03222656 C191.92875451 86.05701608 147.6364154 85.36101863 108.83544922 93.09472656 C108.06918213 93.24393555 107.30291504 93.39314453 106.51342773 93.546875 C91.22835807 96.83340861 83.9118284 107.16343715 75.02294922 119.21972656 C74.55727539 119.84637207 74.09160156 120.47301758 73.61181641 121.11865234 C65.33421849 132.31726024 58.18072639 144.0563493 51.25292969 156.12939453 C50.2338227 157.86135047 49.13764137 159.54768833 48.02294922 161.21972656 C25.0321695 151.70990404 6.89617087 109.22411936 -1.97705078 88.21972656 C-25.11762467 30.92399091 -25.11762467 30.92399091 -20.97705078 6.21972656 C-16.78397949 -2.29019673 -8.25133439 -2.16264267 0 0 Z " fill="#802F34" transform="translate(20.97705078125,0.7802734375)"/>
<path d="M0 0 C0.8194812 0.55010742 0.8194812 0.55010742 1.65551758 1.11132812 C2.37376709 1.57990234 3.0920166 2.04847656 3.83203125 2.53125 C4.54335205 3.00111328 5.25467285 3.47097656 5.98754883 3.95507812 C8.03279515 5.27907365 8.03279515 5.27907365 10.6875 4.5 C11.450625 4.005 12.21375 3.51 13 3 C14.66471079 1.99674741 16.33113956 0.99633459 18 0 C18.09123236 29.21549744 18.16202937 58.43098479 18.20426132 87.64659552 C18.2092642 91.09504503 18.21444148 94.54349427 18.21972656 97.99194336 C18.2207758 98.6784732 18.22182505 99.36500305 18.22290608 100.07233683 C18.24031568 111.1914284 18.27185639 122.31043733 18.30861118 133.42947986 C18.34600526 144.83698054 18.36793314 156.24441412 18.37635398 167.65197784 C18.38157582 174.06016355 18.39387735 180.46816175 18.42292023 186.87628746 C18.45002263 192.90497152 18.45845537 198.9333904 18.45243073 204.96212959 C18.45353327 207.17731033 18.46151769 209.39249972 18.4768219 211.60762787 C18.4966684 214.62775928 18.49195828 217.64688418 18.48101807 220.66703796 C18.49266943 221.54739186 18.5043208 222.42774577 18.51632524 223.33477706 C18.47614736 227.42680857 18.32726991 229.48105656 16.09493637 233.02081013 C13.592498 235.38498727 12.6105721 235.93215866 9.1875 236.3125 C5.2692355 235.92835642 3.78706733 234.70743683 1 232 C-0.69439678 228.61120645 -0.13246621 224.75520185 -0.12025452 221.02780151 C-0.12110894 220.08687562 -0.12196337 219.14594973 -0.12284368 218.17651093 C-0.12449887 215.00421095 -0.11897645 211.83196313 -0.11352539 208.65966797 C-0.1132435 206.39339194 -0.11340129 204.12711582 -0.1139679 201.86083984 C-0.1142558 195.69172559 -0.10836016 189.52263063 -0.10139394 183.35352087 C-0.09515928 176.91261231 -0.09455651 170.47170335 -0.09336853 164.03079224 C-0.09060964 153.21469752 -0.08435569 142.39861074 -0.07543945 131.58251953 C-0.06626415 120.44059281 -0.05918389 109.29866802 -0.05493164 98.15673828 C-0.05466892 97.47025475 -0.05440619 96.78377121 -0.05413551 96.07648514 C-0.0528305 92.63269003 -0.05156678 89.18889491 -0.05032361 85.74509978 C-0.03995243 57.16339505 -0.02226116 28.5816978 0 0 Z " fill="#DF4D5F" transform="translate(247,108)"/>
<path d="M0 0 C4.00538252 0.64372219 5.65945826 1.72195826 8.5 4.5625 C9.78072854 7.12395709 9.64282274 8.98807851 9.67578125 11.85546875 C10.31705564 45.47161675 15.91397414 78.99835734 40 104.17578125 C40.825 105.04589844 41.65 105.91601562 42.5 106.8125 C43.263125 107.58078125 44.02625 108.3490625 44.8125 109.140625 C46.92715647 112.17554864 46.88364523 113.93530876 46.5 117.5625 C45.29293121 120.90515205 44.57943151 121.50954566 41.5 123.5625 C36.47059597 124.2330872 34.50309993 124.20599807 30.1875 121.4375 C1.08859244 93.20225864 -8.01106142 53.21310809 -8.9375 14.0625 C-8.97190186 13.27963623 -9.00630371 12.49677246 -9.04174805 11.69018555 C-9.07232385 7.65816803 -8.68032754 5.79652914 -6.19140625 2.56640625 C-3.5 0.5625 -3.5 0.5625 0 0 Z " fill="#FB7A75" transform="translate(61.5,317.4375)"/>
<path d="M0 0 C2.69990662 1.79993774 4.5418865 3.083773 6 6 C6.12365056 8.93108041 6.18844664 11.83742448 6.203125 14.76953125 C6.20882507 15.64268478 6.21452515 16.51583832 6.22039795 17.41545105 C6.22985345 19.26564317 6.23638411 21.11585218 6.24023438 22.96606445 C6.24992565 25.79082844 6.28093755 28.61486044 6.3125 31.43945312 C6.31903152 33.23697485 6.32428141 35.03450177 6.328125 36.83203125 C6.3404718 37.67490189 6.3528186 38.51777252 6.36553955 39.38618469 C6.34780025 44.07944985 6.0790068 47.20986348 3 51 C-0.51253146 53.34168764 -1.86469356 53.49623677 -6 53 C-9.33761045 50.84909549 -10.73470933 49.79587201 -12 46 C-12.1333638 43.0365643 -12.21232695 40.09747687 -12.23828125 37.1328125 C-12.246353 36.26107391 -12.25442474 35.38933533 -12.26274109 34.49118042 C-12.27656662 32.64697246 -12.28729562 30.80273908 -12.29516602 28.95849609 C-12.31239349 26.14241018 -12.35629405 23.32749415 -12.40039062 20.51171875 C-12.41051678 18.71875862 -12.41903312 16.92578853 -12.42578125 15.1328125 C-12.45204338 13.87321213 -12.45204338 13.87321213 -12.47883606 12.58816528 C-12.46380551 8.52546697 -12.32063757 6.50724048 -10.09838867 2.99169922 C-6.74952843 -0.1868932 -4.57716249 -0.44874142 0 0 Z " fill="#DF4D60" transform="translate(259,362)"/>
</svg>
